<svg fill = "none" height = "27" viewBox = "0 0 25 27" width = "25" xmlns = "http://www.w3.org/2000/svg">
	<g filter = "url(#filter0_d)">
		<path clip-rule = "evenodd"
		      d = "M14.3211 6.03356C14.3786 6.09095 14.4242 6.15911 14.4554 6.23416C14.4865 6.30921 14.5026 6.38966 14.5026 6.47092C14.5026 6.55217 14.4865 6.63263 14.4554 6.70767C14.4242 6.78272 14.3786 6.85089 14.3211 6.90827L7.3444 13.8837L14.3211 20.8591C14.4371 20.9751 14.5022 21.1325 14.5022 21.2965C14.5022 21.4605 14.4371 21.6179 14.3211 21.7339C14.2051 21.8498 14.0478 21.915 13.8837 21.915C13.7197 21.915 13.5624 21.8498 13.4464 21.7339L6.03357 14.3211C5.97604 14.2637 5.9304 14.1955 5.89926 14.1205C5.86812 14.0454 5.85209 13.965 5.85209 13.8837C5.85209 13.8025 5.86812 13.722 5.89926 13.647C5.9304 13.5719 5.97604 13.5037 6.03357 13.4464L13.4464 6.03356C13.5037 5.97604 13.5719 5.93039 13.647 5.89925C13.722 5.86811 13.8025 5.85208 13.8837 5.85208C13.965 5.85208 14.0454 5.86811 14.1205 5.89925C14.1955 5.93039 14.2637 5.97604 14.3211 6.03356Z"
		      fill = "black"
		      fill-rule = "evenodd"/>
		<path clip-rule = "evenodd"
		      d = "M19.2629 6.03356C19.3205 6.09095 19.3661 6.15911 19.3972 6.23416C19.4284 6.30921 19.4444 6.38966 19.4444 6.47092C19.4444 6.55217 19.4284 6.63263 19.3972 6.70767C19.3661 6.78272 19.3205 6.85089 19.2629 6.90827L12.2863 13.8837L19.2629 20.8591C19.3204 20.9166 19.3659 20.9848 19.397 21.0598C19.4281 21.1348 19.4441 21.2153 19.4441 21.2965C19.4441 21.3777 19.4281 21.4582 19.397 21.5332C19.3659 21.6082 19.3204 21.6764 19.2629 21.7339C19.2055 21.7913 19.1373 21.8368 19.0623 21.8679C18.9872 21.899 18.9068 21.915 18.8256 21.915C18.7443 21.915 18.6639 21.899 18.5889 21.8679C18.5138 21.8368 18.4457 21.7913 18.3882 21.7339L10.9754 14.3211C10.9179 14.2637 10.8723 14.1955 10.8411 14.1205C10.81 14.0454 10.7939 13.965 10.7939 13.8837C10.7939 13.8025 10.81 13.722 10.8411 13.647C10.8723 13.5719 10.9179 13.5037 10.9754 13.4464L18.3882 6.03356C18.4456 5.97604 18.5138 5.93039 18.5888 5.89925C18.6639 5.86811 18.7443 5.85208 18.8256 5.85208C18.9068 5.85208 18.9873 5.86811 19.0623 5.89925C19.1374 5.93039 19.2055 5.97604 19.2629 6.03356Z"
		      fill = "black"
		      fill-rule = "evenodd"/>
	</g>
	<defs>
		<filter color-interpolation-filters = "sRGB" filterUnits = "userSpaceOnUse" height = "29.7674" id = "filter0_d"
		        width = "29.7674" x = "-1"
		        y = "-1">
			<feFlood flood-opacity = "0" result = "BackgroundImageFix"/>
			<feColorMatrix in = "SourceAlpha" type = "matrix" values = "0 0 0 0 0 0 0 0 0 0 0 0 0 0 0 0 0 0 127 0"/>
			<feOffset/>
			<feGaussianBlur stdDeviation = "2.5"/>
			<feColorMatrix type = "matrix" values = "0 0 0 0 0 0 0 0 0 0 0 0 0 0 0 0 0 0 0.25 0"/>
			<feBlend in2 = "BackgroundImageFix" mode = "normal" result = "effect1_dropShadow"/>
			<feBlend in = "SourceGraphic" in2 = "effect1_dropShadow" mode = "normal" result = "shape"/>
		</filter>
	</defs>
</svg>
