<svg width = "25" height = "26" viewBox = "0 0 25 26" fill = "none"
     xmlns = "http://www.w3.org/2000/svg">
    <path d = "M22.2007 9.48182C21.3176 7.34974 19.7567 5.56809 17.7595 4.41223C17.7543 4.40919 17.7475 4.41099 17.7445 4.41624V4.41624C17.7415 4.42149 17.7433 4.4282 17.7485 4.43124C19.7415 5.58468 21.2992 7.36261 22.1805 9.49022C23.0631 11.6212 23.218 13.9839 22.621 16.2119C22.024 18.4399 20.7086 20.4086 18.8786 21.8128C17.0487 23.217 14.8066 23.9781 12.5 23.9781C10.1934 23.9781 7.9513 23.217 6.12137 21.8128C4.29144 20.4086 2.97597 18.4399 2.37898 16.2119C1.78199 13.9839 1.93685 11.6212 2.81954 9.49023C3.70083 7.36261 5.25846 5.58468 7.25146 4.43124C7.25671 4.4282 7.25852 4.42149 7.25549 4.41624V4.41624C7.25246 4.41099 7.24574 4.40919 7.24049 4.41223C5.2433 5.56809 3.6824 7.34974 2.79926 9.48183C1.91473 11.6173 1.75954 13.985 2.35778 16.2176C2.95602 18.4503 4.27424 20.4231 6.10801 21.8302C7.94177 23.2373 10.1886 24 12.5 24C14.8114 24 17.0582 23.2373 18.892 21.8302C20.7258 20.4231 22.044 18.4502 22.6422 16.2176C23.2405 13.9849 23.0853 11.6173 22.2007 9.48182Z"
          stroke = "currentColor" stroke-width = "3" stroke-linejoin = "round"/>
    <line x1 = "12.5" y1 = "1.5" x2 = "12.5" y2 = "12.5" stroke = "currentColor"
          stroke-width = "3" stroke-linecap = "round"
          stroke-linejoin = "round"/>
</svg>
