<svg width="80" height="121" viewBox="0 0 80 121" fill="none" xmlns="http://www.w3.org/2000/svg">
<g clip-path="url(#clip0)" filter="url(#filter0_d)">
<path d="M65.2139 28.0539L63.0084 26.3639C74.036 12.5259 60.8028 2.4909 54.5699 12.8428C48.7203 22.5609 56.6794 34.6031 61.4741 50.2366C69.0496 74.9547 67.899 88.2644 58.1179 101.152C33.4733 133.475 -12.6514 121.116 3.26688 87.6304C8.73284 76.1165 18.2262 67.8773 34.4322 69.8843C35.9665 71.9969 34.3365 72.8421 33.1856 73.4758C20.0482 80.6589 12.4728 109.496 23.8839 108.863C29.3499 108.652 37.5009 102.63 41.7201 92.384C46.6107 80.4475 40.5694 65.4478 36.2541 51.2929C26.1854 17.9132 49.0082 -10.9243 75.0911 4.07527C84.9682 9.77949 78.4475 29.744 65.2141 28.0539H65.2139Z" fill="url(#paint0_linear)"/>
</g>
<defs>
<filter id="filter0_d" x="0" y="0" width="80" height="121" filterUnits="userSpaceOnUse" color-interpolation-filters="sRGB">
<feFlood flood-opacity="0" result="BackgroundImageFix"/>
<feColorMatrix in="SourceAlpha" type="matrix" values="0 0 0 0 0 0 0 0 0 0 0 0 0 0 0 0 0 0 127 0"/>
<feOffset dy="1"/>
<feColorMatrix type="matrix" values="0 0 0 0 0 0 0 0 0 0 0 0 0 0 0 0 0 0 0.25 0"/>
<feBlend mode="normal" in2="BackgroundImageFix" result="effect1_dropShadow"/>
<feBlend mode="normal" in="SourceGraphic" in2="effect1_dropShadow" result="shape"/>
</filter>
<linearGradient id="paint0_linear" x1="80.0002" y1="-0.000673613" x2="5.00025" y2="119.999" gradientUnits="userSpaceOnUse">
<stop stop-color="#040000"/>
<stop offset="1" stop-color="#8C8C8C"/>
</linearGradient>
<clipPath id="clip0">
<rect width="80" height="120" fill="white"/>
</clipPath>
</defs>
</svg>
