<svg width="80" height="121" viewBox="0 0 80 121" fill="none" xmlns="http://www.w3.org/2000/svg">
<g clip-path="url(#clip0)" filter="url(#filter0_d)">
<path d="M65.2139 28.0539L63.0084 26.3638C74.036 12.5258 60.8028 2.49084 54.5699 12.8427C48.7203 22.5608 56.6794 34.603 61.4741 50.2365C69.0496 74.9547 67.899 88.2644 58.1179 101.151C33.4733 133.475 -12.6514 121.116 3.26688 87.6304C8.73284 76.1165 18.2262 67.8772 34.4322 69.8842C35.9665 71.9968 34.3365 72.842 33.1856 73.4758C20.0482 80.6589 12.4728 109.496 23.8839 108.863C29.3499 108.651 37.5009 102.63 41.7201 92.384C46.6107 80.4475 40.5694 65.4477 36.2541 51.2929C26.1854 17.9132 49.0082 -10.9243 75.0911 4.07521C84.9682 9.77943 78.4475 29.744 65.2141 28.0539H65.2139Z" fill="url(#paint0_linear)"/>
</g>
<defs>
<filter id="filter0_d" x="0" y="0" width="80" height="121" filterUnits="userSpaceOnUse" color-interpolation-filters="sRGB">
<feFlood flood-opacity="0" result="BackgroundImageFix"/>
<feColorMatrix in="SourceAlpha" type="matrix" values="0 0 0 0 0 0 0 0 0 0 0 0 0 0 0 0 0 0 127 0"/>
<feOffset dy="1"/>
<feColorMatrix type="matrix" values="0 0 0 0 0 0 0 0 0 0 0 0 0 0 0 0 0 0 0.25 0"/>
<feBlend mode="normal" in2="BackgroundImageFix" result="effect1_dropShadow"/>
<feBlend mode="normal" in="SourceGraphic" in2="effect1_dropShadow" result="shape"/>
</filter>
<linearGradient id="paint0_linear" x1="80.0002" y1="-0.000734648" x2="5.00025" y2="119.999" gradientUnits="userSpaceOnUse">
<stop stop-color="white"/>
<stop offset="1" stop-color="#B9B9B9"/>
</linearGradient>
<clipPath id="clip0">
<rect width="80" height="120" fill="white"/>
</clipPath>
</defs>
</svg>
