<svg width="42" height="41" viewBox="0 0 42 41" fill="none" xmlns="http://www.w3.org/2000/svg">
<g filter="url(#filter0_d)">
<path d="M18.6653 16.9445H11.8908C11.4324 16.9445 11.0327 16.6328 10.921 16.1882L8.58489 6.89473C8.56872 6.83632 8.55886 6.77635 8.5555 6.71584C8.52739 5.79456 9.54195 5.15567 10.4211 5.57734L32.2321 16.0429C32.9886 16.4059 32.9886 17.483 32.2321 17.846L10.4211 28.3116C9.55217 28.7294 8.55039 28.1084 8.5555 27.2037C8.55809 27.1229 8.57229 27.0429 8.59767 26.9661L10.4722 20.7778" fill="#0056FD" fill-opacity="0.25"/>
<path d="M18.6653 16.9445H11.8908C11.4324 16.9445 11.0327 16.6328 10.921 16.1882L8.58489 6.89473C8.56872 6.83632 8.55886 6.77635 8.5555 6.71584C8.52739 5.79456 9.54195 5.15567 10.4211 5.57734L32.2321 16.0429C32.9886 16.4059 32.9886 17.483 32.2321 17.846L10.4211 28.3116C9.55217 28.7294 8.55039 28.1084 8.5555 27.2037C8.55809 27.1229 8.57229 27.0429 8.59767 26.9661L10.4722 20.7778" stroke="#0056FD" stroke-linecap="round"/>
</g>
<defs>
<filter id="filter0_d" x="-2" y="-2.38892" width="46.6667" height="46.6667" filterUnits="userSpaceOnUse" color-interpolation-filters="sRGB">
<feFlood flood-opacity="0" result="BackgroundImageFix"/>
<feColorMatrix in="SourceAlpha" type="matrix" values="0 0 0 0 0 0 0 0 0 0 0 0 0 0 0 0 0 0 127 0"/>
<feOffset dy="4"/>
<feGaussianBlur stdDeviation="4"/>
<feColorMatrix type="matrix" values="0 0 0 0 0 0 0 0 0 0 0 0 0 0 0 0 0 0 0.15 0"/>
<feBlend mode="normal" in2="BackgroundImageFix" result="effect1_dropShadow"/>
<feBlend mode="normal" in="SourceGraphic" in2="effect1_dropShadow" result="shape"/>
</filter>
</defs>
</svg>
