<svg fill = "none" height = "20" viewBox = "0 0 20 20" width = "20"
     xmlns = "http://www.w3.org/2000/svg">
    <path clip-rule = "evenodd"
          d = "M10.3211 2.03356C10.3786 2.09095 10.4242 2.15911 10.4554 2.23416C10.4865 2.30921 10.5026 2.38966 10.5026 2.47092C10.5026 2.55217 10.4865 2.63263 10.4554 2.70767C10.4242 2.78272 10.3786 2.85089 10.3211 2.90827L3.3444 9.88371L10.3211 16.8591C10.4371 16.9751 10.5022 17.1325 10.5022 17.2965C10.5022 17.4605 10.4371 17.6179 10.3211 17.7339C10.2051 17.8498 10.0478 17.915 9.88372 17.915C9.71968 17.915 9.56235 17.8498 9.44636 17.7339L2.03357 10.3211C1.97604 10.2637 1.9304 10.1955 1.89926 10.1205C1.86812 10.0454 1.85209 9.96496 1.85209 9.88371C1.85209 9.80246 1.86812 9.722 1.89926 9.64695C1.9304 9.5719 1.97604 9.50374 2.03357 9.44635L9.44636 2.03356C9.50374 1.97604 9.57191 1.93039 9.64696 1.89925C9.72201 1.86811 9.80246 1.85208 9.88372 1.85208C9.96497 1.85208 10.0454 1.86811 10.1205 1.89925C10.1955 1.93039 10.2637 1.97604 10.3211 2.03356Z"
          fill = "white" fill-rule = "evenodd"/>
    <path clip-rule = "evenodd"
          d = "M15.2629 2.03356C15.3205 2.09095 15.3661 2.15911 15.3972 2.23416C15.4284 2.30921 15.4444 2.38966 15.4444 2.47092C15.4444 2.55217 15.4284 2.63263 15.3972 2.70767C15.3661 2.78272 15.3205 2.85089 15.2629 2.90827L8.28626 9.88371L15.2629 16.8591C15.3204 16.9166 15.3659 16.9848 15.397 17.0598C15.4281 17.1348 15.4441 17.2153 15.4441 17.2965C15.4441 17.3777 15.4281 17.4582 15.397 17.5332C15.3659 17.6082 15.3204 17.6764 15.2629 17.7339C15.2055 17.7913 15.1373 17.8368 15.0623 17.8679C14.9872 17.899 14.9068 17.915 14.8256 17.915C14.7443 17.915 14.6639 17.899 14.5889 17.8679C14.5138 17.8368 14.4457 17.7913 14.3882 17.7339L6.97543 10.3211C6.9179 10.2637 6.87226 10.1955 6.84112 10.1205C6.80997 10.0454 6.79395 9.96496 6.79395 9.88371C6.79395 9.80246 6.80997 9.722 6.84112 9.64695C6.87226 9.5719 6.9179 9.50374 6.97543 9.44635L14.3882 2.03356C14.4456 1.97604 14.5138 1.93039 14.5888 1.89925C14.6639 1.86811 14.7443 1.85208 14.8256 1.85208C14.9068 1.85208 14.9873 1.86811 15.0623 1.89925C15.1374 1.93039 15.2055 1.97604 15.2629 2.03356Z"
          fill = "white" fill-rule = "evenodd"/>
</svg>
