<svg fill = "none" height = "23" viewBox = "0 0 23 23" width = "23"
     xmlns = "http://www.w3.org/2000/svg">
    <path d = "M4.48921 4.73621H19.4863C20.9011 4.73621 21.6142 5.404 21.6142 6.76223V16.2924C21.6142 17.6394 20.9011 18.3185 19.4863 18.3185H4.48921C3.0744 18.3185 2.36133 17.6394 2.36133 16.2924V6.76223C2.36133 5.404 3.0744 4.73621 4.48921 4.73621ZM11.9821 14.4702L19.6108 8.211C19.8824 7.98463 20.0975 7.46398 19.7579 6.99992C19.4297 6.53586 18.8298 6.52454 18.4337 6.8075L11.9821 11.1765L5.54184 6.8075C5.14569 6.52454 4.54581 6.53586 4.21757 6.99992C3.87801 7.46398 4.09306 7.98463 4.36471 8.211L11.9821 14.4702Z"
          fill = "#212121"/>
</svg>
