<svg fill = "none" height = "23" viewBox = "0 0 24 23" width = "24"
     xmlns = "http://www.w3.org/2000/svg">
    <path d = "M5.48634 4.73621C4.67333 4.73621 3.89363 5.05917 3.31874 5.63405C2.74386 6.20893 2.4209 6.98864 2.4209 7.80164V14.8757C2.4209 15.6887 2.74386 16.4684 3.31874 17.0433C3.89363 17.6182 4.67333 17.9412 5.48634 17.9412H18.2197C18.6223 17.9412 19.0209 17.8619 19.3928 17.7078C19.7647 17.5538 20.1026 17.328 20.3873 17.0433C20.6719 16.7587 20.8977 16.4207 21.0518 16.0488C21.2058 15.6769 21.2851 15.2783 21.2851 14.8757V7.80164C21.2851 7.39908 21.2058 7.00047 21.0518 6.62855C20.8977 6.25664 20.6719 5.9187 20.3873 5.63405C20.1026 5.3494 19.7647 5.1236 19.3928 4.96955C19.0209 4.8155 18.6223 4.73621 18.2197 4.73621H5.48634ZM6.45785 9.65977L7.13696 10.3389L7.81607 9.65977C7.88083 9.59027 7.95893 9.53452 8.04571 9.49586C8.13248 9.45719 8.22616 9.4364 8.32114 9.43473C8.41612 9.43305 8.51047 9.45053 8.59856 9.4861C8.68664 9.52168 8.76666 9.57464 8.83383 9.64181C8.90101 9.70899 8.95396 9.789 8.98954 9.87709C9.02512 9.96517 9.04259 10.0595 9.04092 10.1545C9.03924 10.2495 9.01845 10.3432 8.97979 10.4299C8.94112 10.5167 8.88538 10.5948 8.81588 10.6596L8.13771 11.3387L8.81682 12.0159C8.88259 12.0816 8.93478 12.1596 8.9704 12.2455C9.00601 12.3314 9.02437 12.4235 9.02441 12.5164C9.02446 12.6094 9.00619 12.7015 8.97065 12.7874C8.93511 12.8733 8.883 12.9514 8.81729 13.0171C8.75158 13.0829 8.67356 13.1351 8.58768 13.1707C8.5018 13.2063 8.40975 13.2247 8.31678 13.2247C8.22381 13.2248 8.13174 13.2065 8.04582 13.171C7.95991 13.1354 7.88184 13.0833 7.81607 13.0176L7.13696 12.3385L6.45785 13.0176C6.32374 13.1426 6.14638 13.2106 5.96311 13.2074C5.77984 13.2041 5.60498 13.1299 5.47538 13.0003C5.34577 12.8707 5.27152 12.6958 5.26829 12.5125C5.26506 12.3293 5.33308 12.1519 5.45804 12.0178L6.13715 11.3387L5.45804 10.6596C5.33308 10.5255 5.26506 10.3481 5.26829 10.1648C5.27152 9.98157 5.34577 9.80672 5.47538 9.67711C5.60498 9.5475 5.77984 9.47325 5.96311 9.47002C6.14638 9.46679 6.32374 9.53481 6.45785 9.65977ZM11.6455 9.65977L12.3246 10.3389L13.0037 9.65977C13.0685 9.59027 13.1466 9.53452 13.2334 9.49586C13.3201 9.45719 13.4138 9.4364 13.5088 9.43473C13.6038 9.43305 13.6981 9.45053 13.7862 9.4861C13.8743 9.52168 13.9543 9.57464 14.0215 9.64181C14.0887 9.70899 14.1416 9.789 14.1772 9.87709C14.2128 9.96517 14.2303 10.0595 14.2286 10.1545C14.2269 10.2495 14.2061 10.3432 14.1675 10.4299C14.1288 10.5167 14.073 10.5948 14.0035 10.6596L13.3254 11.3387L14.0045 12.0159C14.1372 12.1486 14.2117 12.3286 14.2117 12.5163C14.2117 12.704 14.1372 12.884 14.0045 13.0167C13.8718 13.1494 13.6918 13.2239 13.5041 13.2239C13.3164 13.2239 13.1364 13.1494 13.0037 13.0167L12.3246 12.3385L11.6455 13.0176C11.5807 13.0871 11.5026 13.1429 11.4159 13.1815C11.3291 13.2202 11.2354 13.241 11.1404 13.2426C11.0455 13.2443 10.9511 13.2268 10.863 13.1913C10.7749 13.1557 10.6949 13.1027 10.6277 13.0356C10.5606 12.9684 10.5076 12.8884 10.472 12.8003C10.4365 12.7122 10.419 12.6179 10.4207 12.5229C10.4223 12.4279 10.4431 12.3342 10.4818 12.2474C10.5205 12.1607 10.5762 12.0826 10.6457 12.0178L11.3248 11.3387L10.6457 10.6596C10.5208 10.5255 10.4527 10.3481 10.456 10.1648C10.4592 9.98157 10.5334 9.80672 10.663 9.67711C10.7927 9.5475 10.9675 9.47325 11.1508 9.47002C11.334 9.46679 11.5114 9.53481 11.6455 9.65977ZM15.3901 13.4609C15.3901 13.2733 15.4646 13.0934 15.5973 12.9607C15.7299 12.828 15.9099 12.7535 16.0975 12.7535H17.7481C17.9357 12.7535 18.1156 12.828 18.2483 12.9607C18.381 13.0934 18.4555 13.2733 18.4555 13.4609C18.4555 13.6485 18.381 13.8285 18.2483 13.9611C18.1156 14.0938 17.9357 14.1683 17.7481 14.1683H16.0975C15.9099 14.1683 15.7299 14.0938 15.5973 13.9611C15.4646 13.8285 15.3901 13.6485 15.3901 13.4609Z"
          fill = "#9B9B9B"/>
</svg>
