<svg fill = "none" height = "32" viewBox = "0 0 31 32" width = "31"
     xmlns = "http://www.w3.org/2000/svg">
    <path d = "M12.6653 15.9444H5.8908C5.43241 15.9444 5.03272 15.6328 4.92097 15.1882L2.58489 5.89471C2.56872 5.83631 2.55886 5.77634 2.5555 5.71582C2.52739 4.79455 3.54195 4.15566 4.42106 4.57733L26.2321 15.0429C26.9886 15.4059 26.9886 16.483 26.2321 16.846L4.42106 27.3115C3.55217 27.7294 2.55039 27.1084 2.5555 26.2037C2.55809 26.1229 2.57229 26.0428 2.59767 25.966L4.47217 19.7778"
          fill = "#FDF300"/>
    <path d = "M12.6653 15.9444H5.8908C5.43241 15.9444 5.03272 15.6328 4.92097 15.1882L2.58489 5.89471C2.56872 5.83631 2.55886 5.77634 2.5555 5.71582C2.52739 4.79455 3.54195 4.15566 4.42106 4.57733L26.2321 15.0429C26.9886 15.4059 26.9886 16.483 26.2321 16.846L4.42106 27.3115C3.55217 27.7294 2.55039 27.1084 2.5555 26.2037C2.55809 26.1229 2.57229 26.0428 2.59767 25.966L4.47217 19.7778"
          stroke = "#868108" stroke-linecap = "round"/>
</svg>
