<svg fill = "none" height = "29" viewBox = "0 0 31 29" width = "31"
     xmlns = "http://www.w3.org/2000/svg">
    <path d = "M14.7527 13.0426L8.16688 15.7034C7.74187 15.8752 7.25454 15.7359 6.98439 15.3656L1.07144 7.25988C1.03296 7.20969 0.999987 7.15552 0.973083 7.09829C0.585761 6.21794 1.31761 5.20323 2.33298 5.26755L27.6166 6.87286C28.454 6.92603 28.8575 7.92476 28.2921 8.54473L11.2197 27.263C10.5424 28.0069 9.33042 27.7976 8.98173 26.9204C8.95263 26.8412 8.93509 26.7582 8.92962 26.674L8.32423 19.954"
          fill = "#3880FF"/>
    <path d = "M14.7527 13.0426L8.16688 15.7034C7.74187 15.8752 7.25454 15.7359 6.98439 15.3656L1.07144 7.25988C1.03296 7.20969 0.999987 7.15552 0.973083 7.09829C0.585761 6.21794 1.31761 5.20323 2.33298 5.26755L27.6166 6.87286C28.454 6.92603 28.8575 7.92476 28.2921 8.54473L11.2197 27.263C10.5424 28.0069 9.33042 27.7976 8.98173 26.9204C8.95263 26.8412 8.93509 26.7582 8.92962 26.674L8.32423 19.954"
          stroke = "#3171E0" stroke-linecap = "round"/>
</svg>
